<svg xmlns="http://www.w3.org/2000/svg" viewBox="0 0 640 512"><path d="M224 256c70.7 0 128-57.3 128-128S294.7 0 224 0 96 57.3 96 128s57.3 128 128 128zm89.6 32h-11.8c-22.3 10-49.5 16-77.8 16s-55.5-6-77.8-16h-11.8C60.1 288 0 348.1 0 422.4V464c0 26.5 21.5 48 48 48h272c26.5 0 48-21.5 48-48v-41.6C368 348.1 307.9 288 313.6 288zM544 224h-64v-64c0-17.7-14.3-32-32-32s-32 14.3-32 32v64h-64c-17.7 0-32 14.3-32 32s14.3 32 32 32h64v64c0 17.7 14.3 32 32 32s32-14.3 32-32v-64h64c17.7 0 32-14.3 32-32s-14.3-32-32-32z"/></svg>
